<svg xmlns="http://www.w3.org/2000/svg" viewBox="0 0 40 40" style="enable-background:new 0 0 40 40" xml:space="preserve"><path d="M27.1 26.6c-.7.9-1.7 1.6-3 2.1s-2.7.7-4.3.7c-1.7 0-3.1-.4-4.4-1.1-1.3-.8-2.3-1.8-3-3.2-.7-1.4-1.1-3.1-1.1-4.9v-1.6c0-3 .7-5.4 2.2-7 1.4-1.7 3.4-2.5 6-2.5 2.2 0 4 .5 5.3 1.6s2.1 2.7 2.4 4.7h-3.4c-.4-2.4-1.8-3.6-4.2-3.6-1.5 0-2.7.6-3.5 1.7-.8 1.1-1.2 2.7-1.2 4.9v1.5c0 2.2.5 3.8 1.4 5 .9 1.2 2.2 1.8 3.8 1.8 1.8 0 3-.4 3.8-1.2v-3.9h-4.1V19h7.5v7.6z" style="fill:#48b774"/><circle cx="20" cy="20" r="17.5" style="fill:none;stroke:#f9a779;stroke-width:5"/></svg>