<?xml version="1.0" encoding="utf-8"?>
<svg version="1.1" id="lay1" xmlns="http://www.w3.org/2000/svg" xmlns:xlink="http://www.w3.org/1999/xlink" x="0px" y="0px"
	 viewBox="0 0 40 40" style="enable-background:new 0 0 40 40;" xml:space="preserve">
<style type="text/css">
	.st0{fill:#48B774;}
	.st1{fill:none;stroke:#F9A779;stroke-width:5;}
</style>
<path id="g" class="st0" d="M27.1,26.6c-0.7,0.9-1.7,1.6-3,2.1c-1.3,0.5-2.7,0.7-4.3,0.7c-1.7,0-3.1-0.4-4.4-1.1
	c-1.3-0.8-2.3-1.8-3-3.2c-0.7-1.4-1.1-3.1-1.1-4.9v-1.6c0-3,0.7-5.4,2.2-7c1.4-1.7,3.4-2.5,6-2.5c2.2,0,4,0.5,5.3,1.6
	s2.1,2.7,2.4,4.7h-3.4c-0.4-2.4-1.8-3.6-4.2-3.6c-1.5,0-2.7,0.6-3.5,1.7c-0.8,1.1-1.2,2.7-1.2,4.9v1.5c0,2.2,0.5,3.8,1.4,5
	c0.9,1.2,2.2,1.8,3.8,1.8c1.8,0,3-0.4,3.8-1.2v-3.9h-4.1V19h7.5V26.6z"/>
<circle id="circle" class="st1" cx="20" cy="20" r="17.5"/>
</svg>
